<svg xmlns="http://www.w3.org/2000/svg" width="170" height="268" viewBox="0 0 170 268" fill="none">
<g transform="translate(122.1,159.1)" opacity="0.42"><g><animateTransform attributeName="transform" type="translate" values="0,-179; 17.0,-79; -17.0,15; 0,129" keyTimes="0;0.3;0.65;1" dur="8.1s" begin="-7.4s" repeatCount="indefinite"/><g transform="scale(0.87)"><g><animateTransform attributeName="transform" type="rotate" values="0;360" dur="7.1s" repeatCount="indefinite"/><path d="M0 0C3.4-5.2 8.6-5.2 11 0C8.6 5.2 3.4 5.2 0 0Z" fill="#f2a9bf"/></g></g></g></g>
<g transform="translate(140.9,73.1)" opacity="0.72"><g><animateTransform attributeName="transform" type="translate" values="0,-93; 11.4,7; -11.4,101; 0,215" keyTimes="0;0.3;0.65;1" dur="8.1s" begin="-6.5s" repeatCount="indefinite"/><g transform="scale(0.94)"><g><animateTransform attributeName="transform" type="rotate" values="0;360" dur="8.9s" repeatCount="indefinite"/><path d="M0 0C3.4-5.2 8.6-5.2 11 0C8.6 5.2 3.4 5.2 0 0Z" fill="#f2a9bf"/></g></g></g></g>
<g transform="translate(143.5,36.5)" opacity="0.67"><g><animateTransform attributeName="transform" type="translate" values="0,-56; -25.6,44; 25.6,138; 0,252" keyTimes="0;0.3;0.65;1" dur="10.3s" begin="-3.9s" repeatCount="indefinite"/><g transform="scale(0.83)"><g><animateTransform attributeName="transform" type="rotate" values="0;360" dur="7.9s" repeatCount="indefinite"/><path d="M0 0C3.4-5.2 8.6-5.2 11 0C8.6 5.2 3.4 5.2 0 0Z" fill="#f2a9bf"/></g></g></g></g>
<g transform="translate(152.5,29.2)" opacity="0.68"><g><animateTransform attributeName="transform" type="translate" values="0,-49; -25.6,51; 25.6,145; 0,259" keyTimes="0;0.3;0.65;1" dur="12.7s" begin="-12.1s" repeatCount="indefinite"/><g transform="scale(0.84)"><g><animateTransform attributeName="transform" type="rotate" values="0;360" dur="6.4s" repeatCount="indefinite"/><path d="M0 0C3.4-5.2 8.6-5.2 11 0C8.6 5.2 3.4 5.2 0 0Z" fill="#f8d3de"/></g></g></g></g>
<g transform="translate(125.5,214.9)" opacity="0.32"><g><animateTransform attributeName="transform" type="translate" values="0,-235; 25.2,-134; -25.2,-41; 0,73" keyTimes="0;0.3;0.65;1" dur="12.2s" begin="-7.3s" repeatCount="indefinite"/><g transform="scale(1.07)"><g><animateTransform attributeName="transform" type="rotate" values="0;360" dur="7.7s" repeatCount="indefinite"/><path d="M0 0C3.4-5.2 8.6-5.2 11 0C8.6 5.2 3.4 5.2 0 0Z" fill="#f8d3de"/></g></g></g></g>
<g transform="translate(114.6,191.7)" opacity="0.45"><g><animateTransform attributeName="transform" type="translate" values="0,-212; 25.6,-111; -25.6,-17; 0,96" keyTimes="0;0.3;0.65;1" dur="7.0s" begin="-5.3s" repeatCount="indefinite"/><g transform="scale(1.03)"><g><animateTransform attributeName="transform" type="rotate" values="0;360" dur="8.9s" repeatCount="indefinite"/><path d="M0 0C3.4-5.2 8.6-5.2 11 0C8.6 5.2 3.4 5.2 0 0Z" fill="#f2a9bf"/></g></g></g></g>
<g transform="translate(71.2,80.2)" opacity="0.66"><g><animateTransform attributeName="transform" type="translate" values="0,-100; 10.5,0; -10.5,94; 0,208" keyTimes="0;0.3;0.65;1" dur="9.1s" begin="-4.1s" repeatCount="indefinite"/><g transform="scale(0.83)"><g><animateTransform attributeName="transform" type="rotate" values="0;360" dur="4.9s" repeatCount="indefinite"/><path d="M0 0C3.4-5.2 8.6-5.2 11 0C8.6 5.2 3.4 5.2 0 0Z" fill="#efb7cb"/></g></g></g></g>
<g transform="translate(28.6,13.6)" opacity="0.46"><g><animateTransform attributeName="transform" type="translate" values="0,-34; -21.9,67; 21.9,161; 0,274" keyTimes="0;0.3;0.65;1" dur="10.6s" begin="-2.4s" repeatCount="indefinite"/><g transform="scale(0.61)"><g><animateTransform attributeName="transform" type="rotate" values="0;360" dur="5.8s" repeatCount="indefinite"/><path d="M0 0C3.4-5.2 8.6-5.2 11 0C8.6 5.2 3.4 5.2 0 0Z" fill="#f8d3de"/></g></g></g></g>
<g transform="translate(50.8,165.3)" opacity="0.78"><g><animateTransform attributeName="transform" type="translate" values="0,-185; -11.9,-85; 11.9,9; 0,123" keyTimes="0;0.3;0.65;1" dur="11.1s" begin="-6.3s" repeatCount="indefinite"/><g transform="scale(0.88)"><g><animateTransform attributeName="transform" type="rotate" values="0;360" dur="7.3s" repeatCount="indefinite"/><path d="M0 0C3.4-5.2 8.6-5.2 11 0C8.6 5.2 3.4 5.2 0 0Z" fill="#efb7cb"/></g></g></g></g>
<g transform="translate(36.4,138.0)" opacity="0.4"><g><animateTransform attributeName="transform" type="translate" values="0,-158; -16.9,-58; 16.9,36; 0,150" keyTimes="0;0.3;0.65;1" dur="11.0s" begin="-0.3s" repeatCount="indefinite"/><g transform="scale(0.93)"><g><animateTransform attributeName="transform" type="rotate" values="0;360" dur="5.2s" repeatCount="indefinite"/><path d="M0 0C3.4-5.2 8.6-5.2 11 0C8.6 5.2 3.4 5.2 0 0Z" fill="#f8d3de"/></g></g></g></g>
<g transform="translate(10.7,108.3)" opacity="0.35"><g><animateTransform attributeName="transform" type="translate" values="0,-128; 19.4,-28; -19.4,66; 0,180" keyTimes="0;0.3;0.65;1" dur="10.8s" begin="-4.0s" repeatCount="indefinite"/><g transform="scale(0.92)"><g><animateTransform attributeName="transform" type="rotate" values="0;360" dur="4.4s" repeatCount="indefinite"/><path d="M0 0C3.4-5.2 8.6-5.2 11 0C8.6 5.2 3.4 5.2 0 0Z" fill="#f6c3d2"/></g></g></g></g>
<g transform="translate(89.4,116.5)" opacity="0.48"><g><animateTransform attributeName="transform" type="translate" values="0,-136; -23.8,-36; 23.8,58; 0,172" keyTimes="0;0.3;0.65;1" dur="7.4s" begin="-3.5s" repeatCount="indefinite"/><g transform="scale(0.7)"><g><animateTransform attributeName="transform" type="rotate" values="0;360" dur="6.7s" repeatCount="indefinite"/><path d="M0 0C3.4-5.2 8.6-5.2 11 0C8.6 5.2 3.4 5.2 0 0Z" fill="#f6c3d2"/></g></g></g></g>
<g transform="translate(29.5,8.9)" opacity="0.64"><g><animateTransform attributeName="transform" type="translate" values="0,-29; 22.9,71; -22.9,165; 0,279" keyTimes="0;0.3;0.65;1" dur="10.2s" begin="-4.2s" repeatCount="indefinite"/><g transform="scale(0.79)"><g><animateTransform attributeName="transform" type="rotate" values="0;360" dur="4.7s" repeatCount="indefinite"/><path d="M0 0C3.4-5.2 8.6-5.2 11 0C8.6 5.2 3.4 5.2 0 0Z" fill="#f8d3de"/></g></g></g></g>
<g transform="translate(133.5,165.3)" opacity="0.5"><g><animateTransform attributeName="transform" type="translate" values="0,-185; -22.4,-85; 22.4,9; 0,123" keyTimes="0;0.3;0.65;1" dur="11.2s" begin="-7.9s" repeatCount="indefinite"/><g transform="scale(1.15)"><g><animateTransform attributeName="transform" type="rotate" values="0;360" dur="6.4s" repeatCount="indefinite"/><path d="M0 0C3.4-5.2 8.6-5.2 11 0C8.6 5.2 3.4 5.2 0 0Z" fill="#f2a9bf"/></g></g></g></g>
<g transform="translate(125.4,174.9)" opacity="0.66"><g><animateTransform attributeName="transform" type="translate" values="0,-195; -12.4,-95; 12.4,-1; 0,113" keyTimes="0;0.3;0.65;1" dur="8.6s" begin="-2.1s" repeatCount="indefinite"/><g transform="scale(0.66)"><g><animateTransform attributeName="transform" type="rotate" values="0;360" dur="8.5s" repeatCount="indefinite"/><path d="M0 0C3.4-5.2 8.6-5.2 11 0C8.6 5.2 3.4 5.2 0 0Z" fill="#f6c3d2"/></g></g></g></g>
<g transform="translate(65.3,242.2)" opacity="0.7"><g><animateTransform attributeName="transform" type="translate" values="0,-262; -24.4,-162; 24.4,-68; 0,46" keyTimes="0;0.3;0.65;1" dur="9.8s" begin="-1.7s" repeatCount="indefinite"/><g transform="scale(1.13)"><g><animateTransform attributeName="transform" type="rotate" values="0;360" dur="5.2s" repeatCount="indefinite"/><path d="M0 0C3.4-5.2 8.6-5.2 11 0C8.6 5.2 3.4 5.2 0 0Z" fill="#f2a9bf"/></g></g></g></g>
<g transform="translate(154.2,201.4)" opacity="0.74"><g><animateTransform attributeName="transform" type="translate" values="0,-221; 23.9,-121; -23.9,-27; 0,87" keyTimes="0;0.3;0.65;1" dur="11.2s" begin="-2.6s" repeatCount="indefinite"/><g transform="scale(0.56)"><g><animateTransform attributeName="transform" type="rotate" values="0;360" dur="6.5s" repeatCount="indefinite"/><path d="M0 0C3.4-5.2 8.6-5.2 11 0C8.6 5.2 3.4 5.2 0 0Z" fill="#efb7cb"/></g></g></g></g>
<g transform="translate(57.6,239.3)" opacity="0.5"><g><animateTransform attributeName="transform" type="translate" values="0,-259; -17.6,-159; 17.6,-65; 0,49" keyTimes="0;0.3;0.65;1" dur="10.4s" begin="-4.4s" repeatCount="indefinite"/><g transform="scale(1.03)"><g><animateTransform attributeName="transform" type="rotate" values="0;360" dur="5.1s" repeatCount="indefinite"/><path d="M0 0C3.4-5.2 8.6-5.2 11 0C8.6 5.2 3.4 5.2 0 0Z" fill="#f2a9bf"/></g></g></g></g>
<g transform="translate(155.0,110.0)" opacity="0.5"><g><animateTransform attributeName="transform" type="translate" values="0,-130; -25.5,-30; 25.5,64; 0,178" keyTimes="0;0.3;0.65;1" dur="7.2s" begin="-3.3s" repeatCount="indefinite"/><g transform="scale(0.59)"><g><animateTransform attributeName="transform" type="rotate" values="0;360" dur="8.0s" repeatCount="indefinite"/><path d="M0 0C3.4-5.2 8.6-5.2 11 0C8.6 5.2 3.4 5.2 0 0Z" fill="#f8d3de"/></g></g></g></g>
<g transform="translate(77.1,109.6)" opacity="0.6"><g><animateTransform attributeName="transform" type="translate" values="0,-130; -18.4,-29; 18.4,65; 0,178" keyTimes="0;0.3;0.65;1" dur="7.1s" begin="-2.6s" repeatCount="indefinite"/><g transform="scale(0.83)"><g><animateTransform attributeName="transform" type="rotate" values="0;360" dur="6.1s" repeatCount="indefinite"/><path d="M0 0C3.4-5.2 8.6-5.2 11 0C8.6 5.2 3.4 5.2 0 0Z" fill="#f6c3d2"/></g></g></g></g>
<g transform="translate(70.1,224.8)" opacity="0.59"><g><animateTransform attributeName="transform" type="translate" values="0,-245; 11.6,-144; -11.6,-51; 0,63" keyTimes="0;0.3;0.65;1" dur="9.9s" begin="-8.6s" repeatCount="indefinite"/><g transform="scale(0.98)"><g><animateTransform attributeName="transform" type="rotate" values="0;360" dur="7.2s" repeatCount="indefinite"/><path d="M0 0C3.4-5.2 8.6-5.2 11 0C8.6 5.2 3.4 5.2 0 0Z" fill="#f2a9bf"/></g></g></g></g>
<g transform="translate(47.8,161.7)" opacity="0.77"><g><animateTransform attributeName="transform" type="translate" values="0,-182; 21.9,-81; -21.9,13; 0,126" keyTimes="0;0.3;0.65;1" dur="9.8s" begin="-4.1s" repeatCount="indefinite"/><g transform="scale(0.76)"><g><animateTransform attributeName="transform" type="rotate" values="0;360" dur="5.2s" repeatCount="indefinite"/><path d="M0 0C3.4-5.2 8.6-5.2 11 0C8.6 5.2 3.4 5.2 0 0Z" fill="#f8d3de"/></g></g></g></g>
<g transform="translate(144.7,154.8)" opacity="0.33"><g><animateTransform attributeName="transform" type="translate" values="0,-175; 13.4,-74; -13.4,19; 0,133" keyTimes="0;0.3;0.65;1" dur="12.8s" begin="-8.6s" repeatCount="indefinite"/><g transform="scale(0.76)"><g><animateTransform attributeName="transform" type="rotate" values="0;360" dur="4.6s" repeatCount="indefinite"/><path d="M0 0C3.4-5.2 8.6-5.2 11 0C8.6 5.2 3.4 5.2 0 0Z" fill="#f8d3de"/></g></g></g></g>
<g transform="translate(55.4,78.7)" opacity="0.71"><g><animateTransform attributeName="transform" type="translate" values="0,-99; 16.9,2; -16.9,96; 0,209" keyTimes="0;0.3;0.65;1" dur="10.9s" begin="-4.8s" repeatCount="indefinite"/><g transform="scale(0.99)"><g><animateTransform attributeName="transform" type="rotate" values="0;360" dur="6.4s" repeatCount="indefinite"/><path d="M0 0C3.4-5.2 8.6-5.2 11 0C8.6 5.2 3.4 5.2 0 0Z" fill="#f6c3d2"/></g></g></g></g>
<g transform="translate(115.7,205.3)" opacity="0.41"><g><animateTransform attributeName="transform" type="translate" values="0,-225; -20.2,-125; 20.2,-31; 0,83" keyTimes="0;0.3;0.65;1" dur="10.0s" begin="-3.2s" repeatCount="indefinite"/><g transform="scale(0.76)"><g><animateTransform attributeName="transform" type="rotate" values="0;360" dur="6.1s" repeatCount="indefinite"/><path d="M0 0C3.4-5.2 8.6-5.2 11 0C8.6 5.2 3.4 5.2 0 0Z" fill="#f2a9bf"/></g></g></g></g>
<g transform="translate(87.5,80.4)" opacity="0.42"><g><animateTransform attributeName="transform" type="translate" values="0,-100; 23.4,-0; -23.4,94; 0,208" keyTimes="0;0.3;0.65;1" dur="11.8s" begin="-10.5s" repeatCount="indefinite"/><g transform="scale(0.59)"><g><animateTransform attributeName="transform" type="rotate" values="0;360" dur="8.8s" repeatCount="indefinite"/><path d="M0 0C3.4-5.2 8.6-5.2 11 0C8.6 5.2 3.4 5.2 0 0Z" fill="#f2a9bf"/></g></g></g></g>
<g transform="translate(155.4,47.7)" opacity="0.37"><g><animateTransform attributeName="transform" type="translate" values="0,-68; -21.1,33; 21.1,127; 0,240" keyTimes="0;0.3;0.65;1" dur="11.1s" begin="-5.5s" repeatCount="indefinite"/><g transform="scale(0.61)"><g><animateTransform attributeName="transform" type="rotate" values="0;360" dur="8.1s" repeatCount="indefinite"/><path d="M0 0C3.4-5.2 8.6-5.2 11 0C8.6 5.2 3.4 5.2 0 0Z" fill="#f8d3de"/></g></g></g></g>
<g transform="translate(101.2,202.8)" opacity="0.42"><g><animateTransform attributeName="transform" type="translate" values="0,-223; 13.8,-122; -13.8,-29; 0,85" keyTimes="0;0.3;0.65;1" dur="12.7s" begin="-4.0s" repeatCount="indefinite"/><g transform="scale(0.87)"><g><animateTransform attributeName="transform" type="rotate" values="0;360" dur="8.0s" repeatCount="indefinite"/><path d="M0 0C3.4-5.2 8.6-5.2 11 0C8.6 5.2 3.4 5.2 0 0Z" fill="#f6c3d2"/></g></g></g></g>
<g transform="translate(87.3,118.1)" opacity="0.74"><g><animateTransform attributeName="transform" type="translate" values="0,-138; 20.1,-38; -20.1,56; 0,170" keyTimes="0;0.3;0.65;1" dur="6.6s" begin="-5.2s" repeatCount="indefinite"/><g transform="scale(1.12)"><g><animateTransform attributeName="transform" type="rotate" values="0;360" dur="5.4s" repeatCount="indefinite"/><path d="M0 0C3.4-5.2 8.6-5.2 11 0C8.6 5.2 3.4 5.2 0 0Z" fill="#f2a9bf"/></g></g></g></g>
<g transform="translate(123.1,147.4)" opacity="0.51"><g><animateTransform attributeName="transform" type="translate" values="0,-167; -16.1,-67; 16.1,27; 0,141" keyTimes="0;0.3;0.65;1" dur="11.9s" begin="-0.7s" repeatCount="indefinite"/><g transform="scale(1.08)"><g><animateTransform attributeName="transform" type="rotate" values="0;360" dur="6.3s" repeatCount="indefinite"/><path d="M0 0C3.4-5.2 8.6-5.2 11 0C8.6 5.2 3.4 5.2 0 0Z" fill="#f6c3d2"/></g></g></g></g>
<g transform="translate(8.5,98.6)" opacity="0.57"><g><animateTransform attributeName="transform" type="translate" values="0,-119; 18.4,-18; -18.4,76; 0,189" keyTimes="0;0.3;0.65;1" dur="12.6s" begin="-10.7s" repeatCount="indefinite"/><g transform="scale(1.05)"><g><animateTransform attributeName="transform" type="rotate" values="0;360" dur="7.3s" repeatCount="indefinite"/><path d="M0 0C3.4-5.2 8.6-5.2 11 0C8.6 5.2 3.4 5.2 0 0Z" fill="#f2a9bf"/></g></g></g></g>
<g transform="translate(144.1,184.2)" opacity="0.66"><g><animateTransform attributeName="transform" type="translate" values="0,-204; 19.6,-104; -19.6,-10; 0,104" keyTimes="0;0.3;0.65;1" dur="9.3s" begin="-2.6s" repeatCount="indefinite"/><g transform="scale(1.1)"><g><animateTransform attributeName="transform" type="rotate" values="0;360" dur="6.6s" repeatCount="indefinite"/><path d="M0 0C3.4-5.2 8.6-5.2 11 0C8.6 5.2 3.4 5.2 0 0Z" fill="#f8d3de"/></g></g></g></g>
<g transform="translate(13.8,228.4)" opacity="0.58"><g><animateTransform attributeName="transform" type="translate" values="0,-248; -11.7,-148; 11.7,-54; 0,60" keyTimes="0;0.3;0.65;1" dur="8.1s" begin="-5.3s" repeatCount="indefinite"/><g transform="scale(0.77)"><g><animateTransform attributeName="transform" type="rotate" values="0;360" dur="6.8s" repeatCount="indefinite"/><path d="M0 0C3.4-5.2 8.6-5.2 11 0C8.6 5.2 3.4 5.2 0 0Z" fill="#f8d3de"/></g></g></g></g>
<g transform="translate(50.7,197.6)" opacity="0.46"><g><animateTransform attributeName="transform" type="translate" values="0,-218; -11.9,-117; 11.9,-23; 0,90" keyTimes="0;0.3;0.65;1" dur="11.8s" begin="-2.5s" repeatCount="indefinite"/><g transform="scale(1.06)"><g><animateTransform attributeName="transform" type="rotate" values="0;360" dur="4.2s" repeatCount="indefinite"/><path d="M0 0C3.4-5.2 8.6-5.2 11 0C8.6 5.2 3.4 5.2 0 0Z" fill="#efb7cb"/></g></g></g></g>
<g transform="translate(57.5,130.9)" opacity="0.52"><g><animateTransform attributeName="transform" type="translate" values="0,-151; 21.0,-51; -21.0,43; 0,157" keyTimes="0;0.3;0.65;1" dur="7.1s" begin="-3.4s" repeatCount="indefinite"/><g transform="scale(1.08)"><g><animateTransform attributeName="transform" type="rotate" values="0;360" dur="4.3s" repeatCount="indefinite"/><path d="M0 0C3.4-5.2 8.6-5.2 11 0C8.6 5.2 3.4 5.2 0 0Z" fill="#efb7cb"/></g></g></g></g>
<g transform="translate(101.2,58.2)" opacity="0.4"><g><animateTransform attributeName="transform" type="translate" values="0,-78; 21.7,22; -21.7,116; 0,230" keyTimes="0;0.3;0.65;1" dur="8.9s" begin="-0.5s" repeatCount="indefinite"/><g transform="scale(1.02)"><g><animateTransform attributeName="transform" type="rotate" values="0;360" dur="8.7s" repeatCount="indefinite"/><path d="M0 0C3.4-5.2 8.6-5.2 11 0C8.6 5.2 3.4 5.2 0 0Z" fill="#f6c3d2"/></g></g></g></g>
</svg>
